<?xml version="1.0" encoding="utf-8"?>
<!-- Generator: Adobe Illustrator 22.0.1, SVG Export Plug-In . SVG Version: 6.00 Build 0)  -->
<svg version="1.1" id="Layer_1" xmlns="http://www.w3.org/2000/svg" xmlns:xlink="http://www.w3.org/1999/xlink" x="0px" y="0px"
	 viewBox="0 0 64 64" style="enable-background:new 0 0 64 64;" xml:space="preserve">
<style type="text/css">
	.st0{fill:#FFFFFF;}
</style>
<polygon class="st0" points="46.9,16.3 23.8,51.9 17.6,47.2 40.7,11.6 "/>
<path class="st0" d="M25,54.4c0,4.6-3.7,8.2-8.2,8.2s-8.2-3.7-8.2-8.2s3.7-8.2,8.2-8.2c2.2,0,4.3,0.9,5.8,2.3
	C24.1,50,25,52.1,25,54.4z M20.2,50.8c-0.9-0.9-2.1-1.4-3.5-1.4c-2.7,0-4.9,2.2-4.9,4.9c0,2.7,2.2,4.9,4.9,4.9
	c2.7,0,4.9-2.2,4.9-4.9C21.7,53,21.1,51.7,20.2,50.8z"/>
<rect x="-0.1" y="50.9" class="st0" width="11.2" height="7.8"/>
<path class="st0" d="M55.3,9.3c0,4.6-3.7,8.2-8.2,8.2s-8.2-3.7-8.2-8.2S42.5,1,47.1,1c2.2,0,4.3,0.9,5.8,2.3
	C54.3,4.9,55.3,7,55.3,9.3z M50.5,5.7c-0.9-0.9-2.1-1.4-3.5-1.4c-2.7,0-4.9,2.2-4.9,4.9s2.2,4.9,4.9,4.9c2.7,0,4.9-2.2,4.9-4.9
	C52,7.9,51.4,6.6,50.5,5.7z"/>
<rect x="52.7" y="5.4" class="st0" width="11.3" height="7.7"/>
</svg>
